<?xml version="1.0" encoding="UTF-8" standalone="no"?>
<!-- Uploaded to: SVG Repo, www.svgrepo.com, Generator: SVG Repo Mixer Tools -->

<svg
   fill="#000000"
   version="1.1"
   id="Capa_1"
   width="800px"
   height="800px"
   viewBox="0 0 95.103 95.103"
   xml:space="preserve"
   sodipodi:docname="generic.svg"
   inkscape:version="1.2.2 (1:1.2.2+202212051550+b0a8486541)"
   xmlns:inkscape="http://www.inkscape.org/namespaces/inkscape"
   xmlns:sodipodi="http://sodipodi.sourceforge.net/DTD/sodipodi-0.dtd"
   xmlns="http://www.w3.org/2000/svg"
   xmlns:svg="http://www.w3.org/2000/svg"><defs
   id="defs24" /><sodipodi:namedview
   id="namedview22"
   pagecolor="#505050"
   bordercolor="#eeeeee"
   borderopacity="1"
   inkscape:showpageshadow="0"
   inkscape:pageopacity="0"
   inkscape:pagecheckerboard="0"
   inkscape:deskcolor="#505050"
   showgrid="false"
   inkscape:zoom="1.28375"
   inkscape:cx="400"
   inkscape:cy="399.61052"
   inkscape:window-width="3440"
   inkscape:window-height="1405"
   inkscape:window-x="3440"
   inkscape:window-y="0"
   inkscape:window-maximized="1"
   inkscape:current-layer="Capa_1" />
<g
   id="g19"
   style="fill:#e6e6e6">
	<g
   id="Layer_1_14_"
   style="fill:#e6e6e6">
		<g
   id="g16"
   style="fill:#e6e6e6">
			<g
   id="g6"
   style="fill:#e6e6e6">
				<g
   id="g4"
   style="fill:#e6e6e6">
					<path
   d="M47.561,0C25.928,0,8.39,6.393,8.39,14.283v11.72c0,7.891,17.538,14.282,39.171,14.282       c21.632,0,39.17-6.392,39.17-14.282v-11.72C86.731,6.393,69.193,0,47.561,0z"
   id="path2"
   style="fill:#e6e6e6" />
				</g>
			</g>
			<g
   id="g12"
   style="fill:#e6e6e6">
				<g
   id="g10"
   style="fill:#e6e6e6">
					<path
   d="M47.561,47.115c-20.654,0-37.682-5.832-39.171-13.227c-0.071,0.353,0,19.355,0,19.355       c0,7.892,17.538,14.283,39.171,14.283c21.632,0,39.17-6.393,39.17-14.283c0,0,0.044-19.003-0.026-19.355       C85.214,41.284,68.214,47.115,47.561,47.115z"
   id="path8"
   style="fill:#e6e6e6" />
				</g>
			</g>
			<path
   d="M86.694,61.464c-1.488,7.391-18.479,13.226-39.133,13.226S9.875,68.854,8.386,61.464L8.39,80.82     c0,7.891,17.538,14.282,39.171,14.282c21.632,0,39.17-6.393,39.17-14.282L86.694,61.464z"
   id="path14"
   style="fill:#e6e6e6" />
		</g>
	</g>
</g>
</svg>
